<?xml version="1.0" standalone="no"?>
<!DOCTYPE svg PUBLIC "-//W3C//DTD SVG 20010904//EN"
 "http://www.w3.org/TR/2001/REC-SVG-20010904/DTD/svg10.dtd">
<svg version="1.0" xmlns="http://www.w3.org/2000/svg"
 width="512.000000pt" height="512.000000pt" viewBox="0 0 512.000000 512.000000"
 preserveAspectRatio="xMidYMid meet"
 >

<g transform="translate(0.000000,512.000000) scale(0.100000,-0.100000)"
fill="#000000" stroke="none">
<path d="M0 5091 c0 -46 20 -192 41 -296 27 -137 99 -348 161 -475 50 -101
157 -268 217 -340 l29 -34 98 46 c234 110 454 125 687 47 104 -34 97 -33 97
-12 0 70 76 266 140 358 18 25 30 48 28 50 -1 2 -70 26 -153 53 -82 28 -222
80 -310 117 -180 74 -663 310 -887 433 -147 80 -148 80 -148 53z"/>
<path d="M5000 5052 c-199 -110 -748 -378 -915 -448 -88 -36 -227 -89 -310
-116 -82 -28 -152 -52 -153 -53 -2 -2 10 -25 28 -50 64 -92 140 -288 140 -358
0 -21 -7 -22 97 12 233 78 453 63 687 -47 l98 -46 29 34 c59 69 170 245 219
347 62 126 132 332 159 468 22 111 45 285 39 306 -2 10 -36 -4 -118 -49z"/>
<path d="M2053 4461 c-104 -30 -173 -71 -254 -151 -109 -108 -178 -256 -179
-381 0 -24 -17 -67 -51 -130 -111 -204 -185 -367 -223 -495 -5 -18 11 -34 107
-107 62 -47 147 -121 189 -165 299 -313 420 -764 317 -1182 -12 -46 -88 -267
-169 -490 -120 -330 -150 -422 -159 -495 -7 -50 -19 -121 -28 -160 -22 -100
-19 -235 6 -316 40 -127 148 -258 260 -317 131 -69 111 -67 691 -67 581 0 560
-2 692 67 185 97 306 332 278 538 -39 293 -46 318 -198 740 -80 223 -156 445
-169 493 -112 431 27 917 351 1225 41 39 118 103 170 143 81 60 95 75 90 93
-38 128 -112 291 -223 495 -32 59 -51 106 -51 127 0 61 -22 138 -62 224 -73
152 -218 272 -383 315 -49 12 -133 15 -500 14 -389 0 -447 -2 -502 -18z m337
-3821 l0 -160 -150 0 -150 0 0 160 0 160 150 0 150 0 0 -160z m640 0 l0 -160
-150 0 -150 0 0 160 0 160 150 0 150 0 0 -160z"/>
<path d="M820 3775 c-90 -20 -230 -90 -327 -164 -98 -74 -283 -266 -283 -294
0 -34 262 -284 363 -346 103 -63 232 -110 325 -118 l68 -6 12 119 c25 237 93
499 178 683 19 41 34 78 34 82 0 5 -30 18 -67 29 -89 28 -219 34 -303 15z"/>
<path d="M4071 3780 c-65 -14 -141 -40 -141 -49 0 -5 15 -41 34 -82 85 -183
153 -446 178 -681 l12 -118 41 0 c53 0 174 31 246 63 124 55 312 207 432 350
50 60 49 63 -73 190 -205 214 -402 324 -599 332 -47 2 -106 0 -130 -5z"/>
<path d="M1276 2943 c-3 -3 -6 -85 -6 -181 0 -323 51 -550 191 -854 32 -69 68
-156 81 -192 13 -36 26 -66 29 -66 10 0 88 228 105 310 26 120 22 302 -10 425
-29 112 -84 233 -147 327 -66 97 -225 249 -243 231z"/>
<path d="M3770 2896 c-167 -138 -284 -340 -331 -571 -17 -85 -15 -285 5 -370
19 -82 96 -305 105 -305 3 0 16 30 29 66 13 36 50 124 83 195 74 161 120 298
154 459 22 105 28 160 32 343 3 128 2 222 -4 228 -5 5 -34 -12 -73 -45z"/>
</g>
</svg>
